<?xml version="1.0" standalone="no"?>
<!DOCTYPE svg PUBLIC "-//W3C//DTD SVG 1.1//EN" "http://www.w3.org/Graphics/SVG/1.1/DTD/svg11.dtd" >
<svg xmlns="http://www.w3.org/2000/svg" xmlns:xlink="http://www.w3.org/1999/xlink" version="1.1">
<metadata>
Created by FontForge 20170731 at Tue Aug 14 18:20:38 1928
 By Aleksey,,,
Copyright (c) 1994 by CompuWorks.
</metadata>
<defs>
<font id="SnyderRegular" horiz-adv-x="540" >
  <font-face 
    font-family="Sign Painter"
    font-weight="600"
    font-stretch="normal"
    units-per-em="1185"
    panose-1="0 0 0 0 0 0 0 0 0 0"
    ascent="948"
    descent="-237"
    x-height="680"
    cap-height="862"
    bbox="-103 -114 1362 929"
    underline-thickness="20"
    underline-position="-163"
    unicode-range="U+0020-2122"
  />
<missing-glyph horiz-adv-x="929" 
d="M58 0v929h813v-929h-813zM813 58v813h-697v-813h697z" />
    <glyph glyph-name=".notdef" horiz-adv-x="929" 
d="M58 0v929h813v-929h-813zM813 58v813h-697v-813h697z" />
    <glyph glyph-name=".null" horiz-adv-x="0" 
 />
    <glyph glyph-name="nonmarkingreturn" horiz-adv-x="474" 
 />
    <glyph glyph-name="space" unicode=" " horiz-adv-x="474" 
 />
    <glyph glyph-name="exclam" unicode="!" horiz-adv-x="505" 
d="M132 -90q-48 39 -72 62.5t-24 57.5q0 27 29.5 82t45.5 62q6 2 11 2q19 0 54 -24q45 -30 52 -56q2 -6 -39 -76.5t-57 -109.5zM246 156q-54 43 -78 66t-24 48q0 26 66 170q32 68 67 137.5t74 140.5q74 135 85 138l19 3q34 0 78 -30.5t52 -60.5q1 -8 -72 -137
q-43 -76 -74 -129q-37 -64 -81 -138q-80 -137 -112 -208z" />
    <glyph glyph-name="quotedbl" unicode="&#x22;" horiz-adv-x="483" 
d="M507 846q4 -4 4 -24q0 -37 -11 -141t-11 -135l1 -22q-39 6 -65 18.5t-38 31t-18 47.5l-4 53q0 68 11.5 126t22 65t27.5 9q18 0 42 -9q13 -5 21.5 -9t17.5 -10zM315 531q-49 5 -76.5 17t-39.5 32.5t-17.5 72.5t-5.5 95q0 49 4.5 81t15.5 40.5t40 8.5q25 0 45.5 -6.5
t29.5 -15t9 -37.5t-7 -109l-7 -111v-34q0 -17 9 -34z" />
    <glyph glyph-name="numbersign" unicode="#" horiz-adv-x="749" 
d="M212 459q-36 -4 -85 -15l-49 -8q-13 12 -26 39q-11 27 -11 50q0 18 5.5 24t79.5 21l144 27q12 27 18 40q10 20 17 32q15 26 27 34q14 7 41 7q24 0 42.5 -6.5t27.5 -18.5q-3 -11 -6 -19q-6 -16 -22 -55q17 0 45 5l50 5l37 68q17 28 25 32t25 6q17 0 38.5 -8.5t32.5 -19.5
q3 -3 -25 -71q21 0 38.5 -6t33.5 -37.5t22 -74.5l-21 2l-70 -6l-59 -5l-41 -91h39.5t34.5 -2q24 0 43 -12.5t30 -38.5q11 -22 20 -65l-17 1q-72 0 -210 -15l-53 -121l-22 -60q-37 6 -58 20q-21 12 -30 40q-3 9 2 31t9.5 37t14.5 39l-96 -14q-45 -107 -45 -132
q-47 6 -70.5 17.5t-29.5 42.5q-3 9 14 58l-34 -10l-28 -5l-16 3q-9 3 -22 34q-11 31 -11 58q0 15 5.5 20t55.5 15l101 21zM446 486l-91 -13l-39 -84l90 12z" />
    <glyph glyph-name="dollar" unicode="$" horiz-adv-x="240" 
d="M49 259q0 14 18 49.5t18 51.5l-36 32q-11 11 -14 22q-3 15 8 37.5t26 34.5q9 -25 41 -44q32 -17 64 -17q30 0 41 17q12 18 -40 51t-63.5 51.5t-11.5 52.5q0 31 17.5 65t51 53t75.5 19q11 6 29.5 43t38.5 51q0 -17 -11.5 -50.5t-13.5 -48.5q20 -9 33.5 -32.5t13.5 -38.5
q0 -9 -28 -25l-37 -21q-9 21 -23.5 36t-31.5 17q-13 0 -23 -13t-12 -28q0 -20 25 -39l44 -33q18 -12 27 -30.5t9 -36.5q0 -24 -9.5 -44.5t-30.5 -43.5q-17 -19 -45 -32q-28 -10 -58 -10l-20 1l-29 -53q-22 -35 -43 -44z" />
    <glyph glyph-name="percent" unicode="%" horiz-adv-x="912" 
d="M102 -114q-4 10 -11 22t-21 32q-22 35 -34 84q-6 32 164 221t373 388q200 195 225 195q26 0 55.5 -37t29.5 -71l-3 -21q-2 -12 -182 -194l-370 -373q-187 -190 -226 -246zM152 522q-27 24 -39.5 53t-12.5 61q0 42 21 85t56.5 75.5t87.5 54t99 21.5q51 0 77.5 -22
t43.5 -55t17 -69q0 -23 -4 -41t-16 -41q-18 -41 -56 -76q-34 -32 -88 -52t-101 -20q-31 0 -49 5.5t-36 20.5zM230 606q3 -3 10 -3q17 0 49 16.5t47 32t24.5 35t11.5 37.5q0 16 -7 23t-19 9q-14 0 -40 -15q-21 -14 -41 -34q-15 -17 -28 -39.5t-13 -42.5q0 -10 6 -19zM446 -64
q-26 23 -39 52t-13 62q0 42 21 85t56.5 75.5t89 55t103.5 22.5q26 0 46 -6.5t38.5 -24.5t33 -48.5t14.5 -61.5q0 -40 -21.5 -84t-58 -79t-88.5 -55q-25 -9 -49 -14t-50 -5t-46 5.5t-37 20.5zM524 20q3 -3 9 -3q16 0 42 16q26 14 46 36q16 17 31 39q12 18 12 37
q0 11 -6.5 17.5t-17.5 7.5q-14 0 -40 -15q-21 -14 -41 -34q-15 -17 -28 -39.5t-13 -42.5q0 -10 6 -19z" />
    <glyph glyph-name="ampersand" unicode="&#x26;" horiz-adv-x="924" 
d="M156 -66q-20 12 -31 33q-7 17 -13 26q-2 4 -13 17q-17 25 -35.5 43t-27.5 31.5t-9 32.5q0 63 89.5 162.5t189.5 146.5q0 158 107.5 296t224.5 138q43 0 84 -25q41 -23 64.5 -72.5t23.5 -105.5q0 -61 -21.5 -114t-39 -60t-31.5 -7q-27 0 -56 10t-68 30q24 38 45 81
q20 45 20 71q0 17 -9 24.5t-22 9.5q-32 0 -75 -41t-58 -81q-5 -16 -9 -30.5t-8 -35.5l-4 -58q0 -47 9 -95t27 -103q53 44 79.5 79t40.5 83q39 -17 64.5 -47.5t25.5 -60.5q0 -19 -40 -69q-19 -25 -42.5 -51t-52.5 -54q27 -35 56 -55q26 -16 51 -23l31 -4q42 0 84 41
q23 23 45 50t48 69q-43 -121 -119.5 -195.5t-156.5 -74.5q-49 0 -74 17t-91 82q-46 -41 -135.5 -78.5t-139.5 -37.5q-20 0 -28 5zM369 174l-22 47l-14 40q-47 -29 -101 -82q-42 -41 -42 -62q0 -3 2.5 -9t16.5 -7q27 0 72.5 21t87.5 52z" />
    <glyph glyph-name="quotesingle" unicode="'" horiz-adv-x="258" 
d="M77 623q53 0 95.5 21t53.5 51l12 44l2 28l-1 25l-1 22l3 26q3 8 12 17q8 6 19 8q28 0 69.5 -31.5t45.5 -50.5q1 -4 2.5 -14t2.5 -18q0 -41 -27.5 -87.5t-63.5 -64t-60.5 -24.5t-40.5 -7q-52 0 -123 55z" />
    <glyph glyph-name="parenleft" unicode="(" horiz-adv-x="513" 
d="M186 -72q-18 12 -72.5 26.5t-67 38t-12.5 52.5q0 94 64.5 262t173.5 321t173.5 177.5t80.5 26.5q36 0 77 -27.5t41 -51.5q0 -14 -28 -29.5t-118.5 -110.5t-187.5 -275q-93 -176 -124 -410z" />
    <glyph glyph-name="parenright" unicode=")" horiz-adv-x="546" 
d="M108 -102q-31 4 -66.5 48t-35.5 90q0 12 52 73q45 53 97 120q21 29 47.5 71.5t53.5 90.5q54 100 70 200q8 53 12 108.5t4 128.5q66 -17 95 -32q31 -14 51.5 -47t20.5 -107q0 -84 -23.5 -188.5t-76.5 -212.5t-159 -228t-142 -115z" />
    <glyph glyph-name="asterisk" unicode="*" horiz-adv-x="721" 
d="M92 448q-14 6 -26 37q-9 30 -9 63q0 27 6.5 40.5t78.5 37.5l84 30q-13 13 -55.5 45.5t-44.5 43.5q-2 12 35 55.5t57 43.5q10 0 46 -26q29 -21 35 -25q11 -8 35 -28q5 18 12 35t17 36q18 35 34 36q15 0 59 -20q45 -18 49 -26l4 -15q0 -6 -21 -71l1 -19l69 18l36 4
q14 0 30 -5q18 -4 44 -40t26 -64q0 -11 -4 -16q-20 0 -68 -14l-78 -22l44 -63q18 -24 18 -42q0 -23 -20 -56q-17 -31 -51 -56q-15 25 -49 58.5t-73 63.5l-32 -57l-47 -121q-19 12 -36 23q-21 14 -30 21q-26 18 -30 31l-4 29v21q3 12 4 18.5t4 21t7 27.5q-30 -9 -79.5 -31
t-67.5 -24z" />
    <glyph glyph-name="plus" unicode="+" horiz-adv-x="654" 
d="M238 78l-80 57q-29 21 -36 40q-2 8 -2 13q0 17 12 43q16 37 34 70l-38 -1l-37 -1q-31 0 -36 4.5t-11 33.5q-5 32 -5 56q0 37 9.5 48.5t73.5 21.5q27 4 61.5 7t61.5 3l65 95q56 86 68 89q8 1 69.5 -24.5t67.5 -54.5q2 -10 -16.5 -40.5t-23.5 -49.5l63 -13
q34 -6 45.5 -18.5t20.5 -41.5q4 -12 7 -28t3 -31v-11l-2 -19l-33 6l-40 2q-20 0 -40 -1t-38 -4l-88 -15q-30 -42 -74 -115t-61 -121z" />
    <glyph glyph-name="comma" unicode="," horiz-adv-x="216" 
d="M-55 -102q30 14 45 32t15 45q0 22 -25 60.5t-24 45.5q5 14 49.5 36.5t62.5 19.5q20 -6 34 -35.5t14 -62.5q0 -11 -3 -25t-10 -30q-12 -29 -59.5 -57.5t-98.5 -28.5z" />
    <glyph glyph-name="hyphen" unicode="-" horiz-adv-x="480" 
d="M96 322l-22 52q-17 51 -17 78q0 14 4.5 21.5t48.5 13.5q48 5 98 5q72 0 126 -6.5t84 -29.5q14 -10 27 -22.5t26 -28.5q22 -26 28 -68q-23 3 -62 3q-28 0 -89.5 -3.5t-90.5 -3.5z" />
    <glyph glyph-name="period" unicode="." horiz-adv-x="174" 
d="M-8 -105q-29 16 -45.5 37.5t-22.5 40.5l-5 24q0 32 31.5 82.5t51.5 53.5q26 0 60 -20q36 -18 36 -37q0 -20 -46 -85t-60 -96z" />
    <glyph glyph-name="slash" unicode="/" horiz-adv-x="612" 
d="M22 -114q-6 14 -36 51t-30 87q0 57 168 243q84 93 176 186t193 188q201 187 225 187q28 0 56 -43q14 -22 21 -41.5t7 -40.5q0 -17 -180 -200l-372 -373q-193 -193 -228 -244z" />
    <glyph glyph-name="zero" unicode="0" horiz-adv-x="708" 
d="M84 -42q-40 24 -60.5 72.5t-20.5 113.5q0 95 32 199t92.5 218t181.5 211.5t229 97.5q46 0 93.5 -24.5t77.5 -84.5t30 -140q0 -89 -33.5 -191t-100 -212t-177.5 -201t-223 -91q-64 0 -121 32zM192 108q9 -6 20 -6q45 0 126.5 75.5t127.5 154.5q23 39 42.5 79t35.5 82
q33 83 33 139q0 33 -12 54q-10 21 -28 25l-23 5q-48 0 -117.5 -85.5t-119.5 -178.5q-44 -87 -76 -168q-28 -78 -28 -124q0 -37 19 -52z" />
    <glyph glyph-name="one" unicode="1" horiz-adv-x="504" 
d="M138 -90q-51 30 -78 57q-25 27 -36 75q-6 28 44 123l102 190q50 94 46 107q-9 22 -25 33q-8 6 -20.5 14t-32.5 19q64 24 124 88.5t124 151.5t71.5 89t15.5 2q12 0 29 -6.5t39 -19.5q53 -32 65 -65q6 -18 -52 -121l-216 -376q-152 -264 -200 -361z" />
    <glyph glyph-name="two" unicode="2" horiz-adv-x="810" 
d="M108 -84q-67 58 -81 74q-18 18 -18 54q0 11 6.5 36t222.5 193t306 246t90 139q0 13 -6.5 27.5t-45.5 14.5q-59 0 -165.5 -54t-182.5 -118q-15 37 -24 67q-4 15 -6 29t-2 32q0 34 23.5 73t138 87t228.5 48q79 0 134 -26q57 -24 75 -63.5t24 -60.5q3 -13 4 -20t1 -23
q0 -93 -81.5 -193.5t-196.5 -187.5q-104 -79 -282 -194q23 5 115 23q38 7 77 15q104 18 145 18q12 0 34 -11q24 -9 55 -46q32 -35 54 -101q-107 0 -194.5 -14.5t-231.5 -43t-180 -28.5q-28 0 -36 8z" />
    <glyph glyph-name="three" unicode="3" horiz-adv-x="780" 
d="M43 117l-2 24q0 31 21 82l27 70q36 -75 117 -129t157 -54q46 0 82 24t46 53l10 38q0 10 2 14q0 47 -68 71l-167 43q-7 11 -13 29l-4 35q0 24 3.5 39t4 19t4.5 12l202 47q69 15 123 50.5t54 68.5q0 5 -8.5 23t-57.5 18q-51 0 -116 -26t-121 -70l-36 92q-9 27 -9 46
q1 7 1 11q15 50 95.5 84.5t173.5 34.5q107 0 179 -47t72 -144q0 -108 -61 -165t-194 -90q64 -36 97 -79t33 -110v-17v-11q-2 -7 -2 -9q0 -5 -4 -26.5t-13 -57.5q-15 -73 -103 -132.5t-200 -59.5q-116 0 -213 56.5t-112 142.5z" />
    <glyph glyph-name="four" unicode="4" horiz-adv-x="828" 
d="M420 -93q-12 19 -62 50t-56 56l-4 30q0 11 5 27.5t18 42.5l24 55l-94 -14q-45 -6 -83 -6q-65 0 -80 15.5t-24 49.5q-4 22 -6 28.5t-5 11.5l-19 33q-9 15 -12.5 24t-3.5 20q0 26 157 150q161 127 337 252q180 129 196 132q24 5 93 -44t69 -76q0 -18 -35 -75l-106 -175
q-36 -58 -57.5 -95.5t-26.5 -50.5q13 -3 25 -10q14 -6 22 -17q9 -9 18 -52q4 -18 7 -42t3 -47q-15 8 -44.5 14t-53.5 6q-55 0 -71.5 -15.5t-57.5 -103t-73 -174.5zM417 324l88 128q80 121 113 160q-47 -26 -204.5 -146t-224.5 -178l117 17q75 9 111 19z" />
    <glyph glyph-name="five" unicode="5" horiz-adv-x="912" 
d="M30 102l-3 26q0 28 26.5 70.5t36.5 65.5q57 -91 134 -132t177 -41q93 0 169.5 58.5t76.5 118.5q0 10 -1 15t-6.5 17.5t-26.5 21.5t-53 9q-39 0 -129 -18q-21 -4 -70 -12q-26 -4 -33 -5q-26 0 -48 18t-41 58q-17 40 -17 78q0 20 54.5 115.5t114.5 184t74 97.5l18 8
q8 0 26 -21q15 -20 25 -24l128 16q126 18 174 18q49 0 74.5 -12.5t52.5 -49.5q15 -20 25 -40t20 -52l-51 10l-59 3q-103 0 -216.5 -27.5t-141.5 -45.5q-24 -15 -59 -59t-55 -91q71 17 133 17q112 0 183.5 -48.5t71.5 -143.5v-28l-19 -99q-15 -85 -142 -168.5t-287 -83.5
q-123 0 -219 48t-117 128z" />
    <glyph glyph-name="six" unicode="6" horiz-adv-x="738" 
d="M820 719l1 -11q0 -34 -23 -82.5t-59 -92.5q0 85 -20 122t-73 37q-54 0 -103.5 -25t-94.5 -66q-20 -17 -49.5 -45.5t-58.5 -58.5l92 27q50 14 82 14q30 0 50 -11t26 -20l21 -31q13 -20 30 -37q14 -13 20 -32l4 -42q0 -142 -144.5 -297.5t-289.5 -155.5q-59 0 -107.5 32
t-71.5 85t-23 117q0 143 91.5 312.5t231.5 288t274 118.5h18l44 -6q33 -3 78 -51t54 -89zM499 413q-6 6 -20 6q-42 0 -111 -37t-94 -74.5t-42.5 -87.5t-17.5 -86q0 -31 12 -42t28 -11q35 0 91.5 39t88.5 81t52.5 96.5t20.5 87.5q0 19 -8 28z" />
    <glyph glyph-name="seven" unicode="7" horiz-adv-x="768" 
d="M120 -96q-20 17 -43 40q-18 18 -31 32q-24 27 -24 61l2 17q12 54 166 187q51 44 102 89q80 69 104 90q54 45 108 91q161 137 192 197l-15 1q-52 0 -106 -22l-152 -64q-98 -43 -118 -43q-8 0 -15 4t-20 47t-13 83q0 28 10 48.5t164.5 64t242.5 43.5q44 0 63.5 -17.5
t30.5 -38.5l26 -54q16 -33 36 -55.5t20 -50.5v-20l-9 -43q-6 -31 -109.5 -132t-312 -282.5t-299.5 -272.5z" />
    <glyph glyph-name="eight" unicode="8" horiz-adv-x="726" 
d="M186 -54q-69 38 -108.5 92t-39.5 116q0 53 36 111t116 107l83 51l-9 54l-2 51q0 63 18 119.5t64 104.5t107 74q32 14 62 21t64 7q75 0 123 -33t67.5 -67.5t19.5 -72.5q0 -87 -85.5 -178t-191.5 -137q19 -23 34.5 -46.5t25.5 -47.5t16 -47.5t6 -47.5q0 -78 -44.5 -140.5
t-108 -91t-130.5 -28.5q-33 0 -63.5 6.5t-59.5 22.5zM612 702q-10 13 -26 13q-23 0 -57.5 -24.5t-57.5 -51.5q-13 -14 -20 -25t-13 -31.5t-6 -48.5l1 -25l2 -20q63 21 125 77t62 104q0 18 -10 32zM369 300q-60 -38 -103.5 -77.5t-43.5 -71.5q0 -26 30 -46q30 -18 69 -18
q32 0 57.5 13t35 34.5t9.5 40.5q0 33 -16 68.5t-38 56.5z" />
    <glyph glyph-name="nine" unicode="9" horiz-adv-x="774" 
d="M21 60l-1 11q0 35 23.5 84.5t58.5 90.5q0 -85 20 -122t73 -37t103 25.5t95 64.5t108 105l-93 -27q-50 -14 -81 -14q-30 0 -49.5 11t-26.5 19l-21 31q-13 21 -28.5 36t-21.5 33l-4 43q0 141 144 297t290 156q59 0 107.5 -32t71.5 -84.5t23 -117.5q0 -144 -91 -312.5
t-232 -287.5t-274 -119h-18l-45 6q-32 3 -77 51t-54 89zM342 366q6 -6 20 -6q41 0 110.5 37t95.5 75q22 34 40.5 85.5t18.5 87.5q0 30 -11.5 41.5t-28.5 11.5q-36 0 -91 -39t-90 -83q-30 -41 -51 -94.5t-21 -87.5q0 -19 8 -28z" />
    <glyph glyph-name="colon" unicode=":" horiz-adv-x="396" 
d="M-76 46q0 27 29.5 87t46.5 60t33 -3.5t34 -13.5q39 -20 42 -52q0 -18 -45 -93t-57 -107q-40 18 -61.5 53t-21.5 69zM236 318l-51 22q-47 19 -62 56q-7 21 37.5 100t61.5 85l25 5q27 0 67 -23q42 -21 52 -41q6 -12 -40 -78z" />
    <glyph glyph-name="semicolon" unicode=";" horiz-adv-x="366" 
d="M-103 -19l9 -1h6q17 0 37 14.5t35 22.5q12 8 27 52.5t23 47.5l16 2q31 0 65 -17t42 -34l7 -20q0 -27 -33 -60q-31 -33 -77 -52t-67 -19q-18 0 -33.5 9.5t-56.5 54.5zM284 318l-51 22q-47 19 -62 56q-7 21 37.5 100t61.5 85l25 5q27 0 67 -23q42 -21 52 -41q6 -12 -40 -78
z" />
    <glyph glyph-name="less" unicode="&#x3c;" horiz-adv-x="870" 
d="M44 383q-3 20 12 52.5t36 58.5q0 -52 11.5 -73.5t44.5 -21.5q35 0 72 20.5t112 96.5l-56 -16q-32 -8 -48 -8q-18 0 -30 6l-15 9l-13 20q-10 16 -20 24q-7 8 -11 18l-2 26q0 42 21 86.5t65 91.5q88 94 174 94q37 0 66 -19.5t42 -52t13 -69.5q0 -134 -118 -282.5
t-241 -148.5l-35 3q-22 3 -49 31.5t-31 53.5zM236 566q3 -3 12 -3q25 0 66.5 22.5t56 43.5t25.5 52.5t11 52.5q0 18 -7.5 24t-15.5 8q-22 0 -55.5 -24.5t-53 -49.5t-32.5 -57q-5 -13 -8 -27t-3 -26t4 -16zM436 383q-3 20 12 52.5t36 58.5q0 -52 11.5 -73.5t44.5 -21.5
q35 0 72 20.5t112 96.5l-56 -16q-32 -8 -48 -8q-18 0 -30 6l-15 9l-13 20q-10 16 -20 24q-7 8 -11 18l-2 26q0 42 21 86.5t65 91.5q88 94 174 94q37 0 66 -19.5t42 -52t13 -69.5q0 -134 -118 -282.5t-241 -148.5l-35 3q-22 3 -49 31.5t-31 53.5zM628 566q3 -3 12 -3
q25 0 66.5 22.5t56 43.5t25.5 52.5t11 52.5q0 18 -7.5 24t-15.5 8q-22 0 -55.5 -24.5t-53 -49.5t-32.5 -57q-5 -13 -8 -27t-3 -26t4 -16zM214 94q-21 11 -39 38t-18 52q0 12 6 22t103 30q49 9 89 14t74 5q50 0 82 -24.5t51 -44.5t25 -59l-26 1q-46 0 -164 -19
q-63 -9 -100 -14t-54 -5q-21 0 -29 4z" />
    <glyph glyph-name="equal" unicode="=" horiz-adv-x="510" 
d="M48 219q-9 13 -20 38q-8 26 -8 44q0 14 7.5 24t70.5 23t123 13l54 -3q23 -3 43 -17t31.5 -38t20.5 -67l-24 1q-35 0 -75.5 -4t-66.5 -7l-133 -11q-19 0 -23 4zM461 404q-8 4 -29 7l-40 2q-42 0 -118 -7l-103 -7q-27 0 -35 7.5t-15 30.5q-3 14 -5 24.5t-2 22.5
q0 28 8.5 39t43.5 15.5t81 4.5q28 0 52.5 -1t45.5 -4q37 0 64 -17q22 -12 34 -40t18 -77z" />
    <glyph glyph-name="greater" unicode="&#x3e;" horiz-adv-x="894" 
d="M113 311q-23 13 -37 42q-11 30 -11 69q0 55 20 121t55.5 131t108 124.5t137.5 59.5q26 0 55.5 -14.5t47.5 -50.5t18 -85q0 -52 -20 -113t-60.5 -128t-107 -121t-133.5 -54h-23q-11 3 -15 4q-16 4 -35 15zM544 311q-23 13 -37 42q-11 30 -11 69q0 55 20 121t55.5 131
t108 124.5t137.5 59.5q26 0 55.5 -14.5t47.5 -50.5t18 -85q0 -52 -20 -113t-60.5 -128t-107 -121t-133.5 -54h-23q-11 3 -15 4q-16 4 -35 15zM609 401l12 -3q26 0 76 45t75 88.5t47 96.5t22 87q0 38 -30 49q-31 9 -75 -43t-76 -114q-8 -17 -26 -55q-12 -27 -21 -47
q-8 -23 -12 -39.5t-4 -33.5q0 -20 12 -31zM178 401l12 -3q27 0 80 46.5t78 90.5q13 21 28 56q12 27 16 37q19 52 19 84q0 21 -8 34q-6 14 -23 18q-31 9 -75 -43t-76 -114q-8 -17 -26 -55q-12 -27 -21 -47q-8 -23 -12 -39.5t-4 -33.5q0 -20 12 -31zM232 94q-21 11 -39 38
t-18 52q0 12 6 22t103 30q49 9 89 14t74 5q50 0 82 -24.5t51 -44.5t25 -59l-26 1q-46 0 -164 -19q-63 -9 -100 -14t-54 -5q-21 0 -29 4z" />
    <glyph glyph-name="question" unicode="?" horiz-adv-x="666" 
d="M186 -84l-78 47q-17 16 -22 36l-3 28q0 37 24 81t40 51q14 6 58.5 -35.5t52.5 -63.5q5 -13 -28.5 -67t-43.5 -77zM276 126l-49 55q-23 27 -35 49t-12 40q0 39 46 94t92 86q92 46 170 92q82 49 82 97q0 10 -7 25q-6 17 -45 17q-69 0 -173.5 -60.5t-140.5 -122.5
q-6 35 -29.5 82.5t-23.5 71.5q0 7 1.5 16t9.5 39.5t122 85.5t228 55q86 0 147 -38.5t72 -91.5l10 -67q0 -77 -74.5 -160t-179.5 -136.5t-143 -101t-68 -127.5z" />
    <glyph glyph-name="A" unicode="A" horiz-adv-x="694" 
d="M-84 78q10 81 128 258t258.5 341.5t183.5 180.5q8 3 105.5 -64t140.5 -80q-37 -99 -66 -195l-51 -192q-20 -90 -43 -239q-6 -46 -12 -91q-9 -62 -14 -87q-43 4 -70.5 31.5t-45.5 60.5q-15 32 -18 43l-2 22l3 30l3 33l-2 20l-170 -19q-38 -4 -71 -8t-41 -6
q-28 -20 -68 -87l-70 -126q-35 37 -57 76q-10 18 -16 38.5t-6 40.5zM432 312l90 330l-65 -77q-50 -61 -75 -92q-16 -20 -42 -54q-55 -69 -97 -131l91 12z" />
    <glyph glyph-name="B" unicode="B" horiz-adv-x="828" 
d="M-36 55q4 27 20 70.5t48 110.5q60 129 135 255t156 239.5t111 121.5l31 -25l43 -32q32 32 98.5 48t122.5 16q18 0 42 -6q23 -4 62 -38t39 -77l-9 -55q-7 -45 -32.5 -94.5t-62.5 -81.5q-16 -15 -49 -41q-38 -30 -80 -63q60 -19 83.5 -50.5t23.5 -69.5v-13q0 -7 -2 -19
l-10 -85q-8 -70 -162 -158.5t-287 -88.5h-13l-12 1l-28 4q-21 3 -56 32l-61 62l-45 -92l-70 52q-17 16 -27 33t-10 34zM341 428q3 -1 10 -1q19 0 46 10t72 35q96 53 183.5 122.5t87.5 103.5q0 8 -6 14l-16 4q-35 0 -109 -36l-130 -67zM290 342l-113 -196q9 -15 47.5 -24
t82.5 -9h19h14q10 2 14 2q17 0 62 15t111.5 60.5t66.5 74.5q0 8 -12 18.5t-39 10.5q-34 0 -95.5 -18.5t-71.5 -18.5q-7 0 -11 4q-13 10 -20 16t-22 21q-22 22 -33 44z" />
    <glyph glyph-name="C" unicode="C" horiz-adv-x="672" 
d="M434 462q40 37 74 98.5t34 94.5q0 15 -8 21.5t-19 6.5q-46 0 -136 -111q-43 -54 -82.5 -116t-75.5 -133q-68 -139 -68 -219q0 -31 10 -48q8 -14 77 32.5t138.5 115t89.5 120.5q39 -9 76 -54.5t37 -71.5l-31 -61q-30 -55 -140.5 -142t-204.5 -87q-56 0 -113.5 38.5
t-85.5 90.5q-24 51 -24 99q0 81 31 185.5t102 223t169.5 208.5t164.5 98l74 7l16 1q72 0 111 -33t51 -73q4 -16 7 -31.5t3 -24.5q0 -68 -42 -183.5t-74 -131.5q-42 12 -89 30t-72 50z" />
    <glyph glyph-name="D" unicode="D" horiz-adv-x="786" 
d="M92 -18q-4 -15 -17 -26l-19 -16q-18 0 -52.5 49.5t-34.5 91.5q0 30 62.5 152t138.5 249l132 220v84q72 29 148 53q71 19 121 19q36 0 93.5 -23.5t105 -95.5t47.5 -161l-1 -26l-12 -73q-11 -65 -91.5 -198t-210 -238.5t-287.5 -129.5q-35 -5 -68 23zM164 80q87 30 158 72
t127 98q109 107 157 216q23 52 35 94.5t12 72.5q0 24 -25 36.5t-56 12.5q-42 0 -61 -13q-9 -6 -32.5 -41.5t-63.5 -104.5q-79 -133 -142 -248z" />
    <glyph glyph-name="E" unicode="E" horiz-adv-x="681" 
d="M483 844q32 0 96 9t82 9q19 0 55 -12.5t64.5 -61.5t28.5 -116l-21 5l-29 4l-42 3q-54 0 -141 -21l-88 -21l-120 -180l86 23q17 4 36 7t32 3q26 0 53 -14t48 -51t21 -88q-7 7 -23 7l-19 -1q-28 0 -70 -9q-27 -6 -98 -25q-55 -14 -93 -26t-57 -21q-39 -17 -68 -75l-46 -96
l118 42q63 22 93 22l28 -3q18 -3 53 -50t35 -98l-19 10l-26 2l-196 -69q-43 -15 -74 -23t-48 -8l-53 9q-41 9 -74 69q-30 60 -30 98l2 18q0 12 16 62t101.5 200.5t168.5 279.5q93 144 145 219q12 3 37 -15q22 -15 36 -17z" />
    <glyph glyph-name="F" unicode="F" horiz-adv-x="697" 
d="M425 866l56 -25l50 -18q11 -3 90 12l95 16q47 0 74 -52q21 -45 43 -102q-13 2 -18.5 3.5t-14.5 4.5q-13 2 -45.5 -3t-89.5 -17q-110 -24 -170 -52l-134 -206l97 19q22 4 37.5 6t31.5 2q11 0 17 -1t26.5 -7t42.5 -41t35 -99l-18 4q-15 0 -21.5 1.5t-15.5 1.5
q-44 0 -172 -34q-141 -39 -166.5 -70.5t-67.5 -100.5q-19 -32 -45.5 -81t-59.5 -115q-44 33 -75 75.5t-42 85.5q-3 15 81 181q40 80 88 166.5t102 175.5q105 176 189 270z" />
    <glyph glyph-name="G" unicode="G" horiz-adv-x="678" 
d="M230 -78l-19 -1l-13 -1q-89 0 -150 56.5t-70 113.5l-7 75q0 106 62 256.5t182 274t214 138.5t113 15q82 0 147.5 -39.5t65.5 -101.5q0 -47 -33.5 -134.5t-53.5 -96.5q-16 -5 -32 -7q-26 0 -57.5 12.5t-75.5 39.5l54 78q28 44 28 59q0 5 -12 15.5t-37 10.5
q-66 0 -159 -104.5t-161.5 -241t-68.5 -218.5q0 -35 8 -46q9 -9 17 -10q31 0 104 54t116 115q-22 -3 -53 -13l-55 -17l-9 58l-3 49q0 30 10.5 43.5t102.5 31.5t144 18l22 -3q11 -3 36 -60.5t21 -82.5q-6 -27 -68.5 -108.5t-146.5 -150t-163 -77.5z" />
    <glyph glyph-name="H" unicode="H" horiz-adv-x="870" 
d="M-28 54q6 54 52 165.5t94 200.5q52 99 109 195l103 173l44 70q44 -17 92.5 -41t48.5 -54q0 -5 -24 -52l-64 -115l-70 -124l-49 -88l282 60l94 175q58 106 98 168q45 71 66 71q39 0 74.5 -30t63.5 -60q-38 -62 -113 -194l-114 -207l-44 -84q-6 -12 -42 -85l-62 -134
l-69 -166q-41 23 -65.5 55t-33.5 66l-7 50q0 37 23 93q10 23 19 48q6 17 10 30l-276 -60l-126 -252q-69 40 -91 59q-24 18 -24 56z" />
    <glyph glyph-name="I" unicode="I" horiz-adv-x="440" 
d="M84 -98l-92 83q-22 22 -19 44q12 62 42 140.5t80 176.5q97 195 196 349t128 167q25 10 94 -42q57 -44 57 -66q0 -4 -3 -9l-139 -215q-41 -66 -92 -152t-99 -170q-99 -174 -153 -306z" />
    <glyph glyph-name="J" unicode="J" horiz-adv-x="693" 
d="M170 342q-26 -52 -50.5 -125.5t-24.5 -112.5q0 -21 9 -32q5 -3 11 -3q25 0 66 29t87.5 93.5t132.5 222.5l160 295q72 134 89 143q6 2 11 2q19 0 54 -24t79 -62q0 -32 -89.5 -211.5t-208.5 -358t-185 -221.5t-100.5 -53.5t-65.5 -10.5q-57 0 -105 27t-73 61q-19 31 -29 64
q-8 32 -8 66q0 66 20 124.5t47 80.5t96 22h19.5t25.5 -3.5t32 -12.5z" />
    <glyph glyph-name="K" unicode="K" horiz-adv-x="806" 
d="M74 -90l-67 58q-31 30 -38 74q-4 32 96 229.5t213 386t138 194.5t74.5 -26.5t57.5 -57.5q6 -24 -53 -119l-115 -184l230 165l223 157q93 63 109 65q32 0 51.5 -32t19.5 -76l-3 -30q-3 -12 -91 -79q-49 -37 -96 -72t-113 -81l-258 -182l88 -85q48 -46 80.5 -85.5
t37.5 -59.5l4 -31q0 -29 -15 -58q-8 -15 -18 -28.5t-27 -33.5l-18 23q-5 8 -51 46l-122 99q-80 65 -136 102q-15 -14 -35 -25l-28 -18q-10 -7 -57 -92z" />
    <glyph glyph-name="L" unicode="L" horiz-adv-x="564" 
d="M504 33l-18 7q-1 1 -11.5 3.5t-15.5 3.5l-16 -2l-227 -76q-89 -29 -126 -29q-13 0 -33.5 6.5t-56.5 72.5q-32 62 -38 97l-5 40q0 72 87 237q45 85 91 165t105 174q39 63 83 130q12 19 29 44q34 6 87 -30t65 -74q6 -18 -69 -144l-163 -273q-86 -145 -127 -244
q72 22 130.5 36.5t92.5 14.5q21 0 42 -10q23 -9 55 -52.5t39 -96.5z" />
    <glyph glyph-name="M" unicode="M" horiz-adv-x="1206" 
d="M56 -84l-90 102q-3 5 -5 19q0 46 48.5 153.5t109 218.5t166 261t143.5 188q62 -20 117 -47q62 -27 93 -73l-30 -95l-62 -212q-32 -114 -40 -167l552 600q77 -21 134.5 -68t69.5 -88q3 -15 -30 -79q-18 -34 -39.5 -71.5t-52.5 -87.5l-100 -167l-64 -111l-66 -131l-74 -145
q-47 22 -81 53.5t-34 67.5l4 33q5 29 46 112t106 197l73 131l-504 -594q-10 7 -36.5 25.5t-29.5 21.5q-23 16 -34 48q-9 32 -9 84q0 43 3 88.5t11 108t17 109.5t24 103z" />
    <glyph glyph-name="N" unicode="N" horiz-adv-x="960" 
d="M396 833q6 2 11 2q31 0 108 -43q93 -51 87 -72q-60 -176 -86.5 -286.5t-26.5 -173.5l3 -47q3 -23 11 -41q55 111 157 277q106 173 188.5 293.5t104.5 133.5l16 4q29 0 65.5 -30.5t39.5 -55.5q0 -22 -110 -198l-237 -383q-123 -200 -166 -286q-72 11 -120 40t-75 78
q-22 45 -35 97q-9 48 -9 98v32.5t4 44.5t6 44t8 42l-271 -485q-41 23 -71.5 59t-38.5 77q-3 22 95 217q102 200 206 374.5t136 187.5z" />
    <glyph glyph-name="O" unicode="O" horiz-adv-x="757" 
d="M9 54q-27 54 -27 131q0 139 83 300.5t212 272.5t256 111q63 0 126.5 -33.5t99.5 -96t36 -141.5q0 -137 -90.5 -297t-215 -272.5t-213.5 -112.5q-43 0 -66 11q-24 9 -69 33l-76 39q-38 22 -56 55zM189 96q8 -6 20 -6q50 0 148.5 83.5t148 166.5t80.5 151.5t31 118.5
q0 28 -10 49t-29.5 34t-40.5 13q-57 0 -129 -70.5t-119 -155.5t-82 -181q-16 -46 -25 -85t-9 -67q0 -36 16 -51z" />
    <glyph glyph-name="P" unicode="P" horiz-adv-x="828" 
d="M101 -96l-79 57q-47 34 -56 69q-5 27 93.5 222.5t210.5 391.5t124.5 202.5t21.5 8.5q13 0 37 -18l47 -33q49 20 95 33.5t85 13.5q50 0 99 -23t89 -73t40 -114q0 -149 -160 -313.5t-307 -164.5q-21 0 -50.5 6.5t-53.5 36.5l-41 64q-25 -28 -99 -168t-96 -198zM332 348
l4 -14l9 -11l19 -4q48 0 137.5 59t163 135t73.5 121q0 15 -9 24.5t-26 15.5l-35 4q-40 0 -88 -15.5t-63.5 -26.5t-89.5 -121q-70 -106 -95 -167z" />
    <glyph glyph-name="Q" unicode="Q" horiz-adv-x="757" 
d="M-19 52q-20 58 -20 125q0 144 79.5 308t205.5 273.5t258 109.5q79 0 147 -39t97 -98.5t29 -134.5q0 -128 -73 -275t-179 -258q-6 -8 12.5 -17.5t41.5 -9.5l9 1q22 3 36 16l32 29q0 -57 -24.5 -115t-72.5 -67l-63 -8q-42 0 -80 21l-52 36l-68 -29q-38 -16 -54 -16
q-34 0 -53 7t-89 49l-66 31q-38 20 -53 61zM162 82q9 -6 26.5 15t32.5 30l28 12l24 5q10 0 21 -4l18 -2q21 6 84 71t98 119.5t68 143t33 146.5q0 51 -22 60l-41 11l-34 3q-97 0 -179.5 -91.5t-133 -219t-50.5 -218.5q0 -63 27 -81z" />
    <glyph glyph-name="R" unicode="R" horiz-adv-x="762" 
d="M78 -95q-52 42 -81.5 76.5t-29.5 72.5q0 47 90 237.5t190 367.5t116 183l22 5q17 0 32 -7q14 -5 49 -27l81 21q62 16 91 16q46 0 81 -26q37 -24 63.5 -76t26.5 -95q0 -109 -108.5 -219t-249.5 -170q61 -51 111 -112.5t50 -93.5l1 -12q0 -44 -21 -77q-10 -15 -22 -32.5
t-30 -39.5q-49 74 -151.5 181.5t-160.5 150.5q-36 -52 -86 -161t-64 -163zM297 375q92 27 214 105t122 145q0 14 -8.5 31t-42.5 17q-30 0 -65 -14t-69 -47q-30 -29 -76 -99q-42 -66 -75 -138z" />
    <glyph glyph-name="S" unicode="S" horiz-adv-x="719" 
d="M485 489q61 71 81 104.5t20 55.5q0 23 -14.5 36t-29.5 14q-33 0 -84 -36.5t-72 -68.5q-17 -28 -28 -55q-8 -26 -8 -47q0 -31 13.5 -59.5t34.5 -50t107 -78t86 -146.5l-3 -38q-1 -12 -2.5 -20t-14.5 -49q-15 -53 -90.5 -96.5t-177.5 -43.5q-58 0 -134.5 19t-147.5 82.5
t-71 125.5q0 18 40 57l77 73q16 -83 93.5 -135.5t152.5 -52.5q30 0 50.5 9t28 24.5t9.5 32.5q0 33 -98.5 92.5t-116.5 100.5q-14 36 -21 70.5t-7 63.5q0 155 125 280t264 125q66 0 117.5 -33t77.5 -80q11 -21 18 -46.5t7 -51.5q0 -86 -52 -169t-71 -86l-30 -2q-32 0 -65 24z
" />
    <glyph glyph-name="T" unicode="T" horiz-adv-x="638" 
d="M166 -108l-106 88q-26 25 -26 44q14 79 66 187t118 221q39 66 51 85q43 71 86 137l-13 1q-24 0 -94 -15t-90 -15q-12 0 -20.5 6t-25 51.5t-16.5 69.5q0 12 21.5 33.5t160.5 45.5t283 24q83 0 129 -7q51 -6 69 -20q20 -12 47.5 -59.5t33.5 -77.5q-53 0 -75.5 -1.5
t-80.5 -6.5q-45 0 -71 -4.5t-34 -11.5q-12 -7 -100 -163q-9 -16 -58 -106q-19 -35 -60 -112q-32 -60 -64 -119q-90 -175 -131 -275z" />
    <glyph glyph-name="U" unicode="U" horiz-adv-x="774" 
d="M-19 73l-4 31q0 79 69.5 250.5t157 335.5t105.5 175.5t29 11.5q34 0 81.5 -36t47.5 -60q0 -31 -77 -173l-152 -286q-76 -146 -76 -194q0 -12 3 -18l10 -4q36 0 160 138t249.5 318.5t178.5 318.5q70 -32 99.5 -51t49.5 -64q15 -36 -117 -256.5t-295.5 -405t-272.5 -184.5
q-38 0 -76 27l-49 38q-13 10 -60.5 33t-60.5 55z" />
    <glyph glyph-name="V" unicode="V" horiz-adv-x="746" 
d="M134 -96q-53 20 -101.5 67t-52.5 66l-3 24l-1 19q0 92 49 271t110 336.5t74 161.5l22 4q36 0 86 -23t63 -56q3 -11 -46 -132l-88 -225q-18 -50 -32.5 -101.5t-25.5 -105.5q108 141 249.5 291.5t253.5 255.5t139 119q24 10 77.5 -46.5t45.5 -88.5q-3 -10 -209 -215
l-349 -347q-62 -62 -92 -93q-37 -38 -87 -92q-46 -50 -82 -90z" />
    <glyph glyph-name="W" unicode="W" horiz-adv-x="1161" 
d="M126 -75q-49 12 -92.5 57t-51.5 72q-6 25 54 224q28 93 40 130q25 79 42 128q9 26 46 126q67 186 88 196q13 6 75.5 -16.5t62.5 -43.5q-3 -23 -50 -139l-84 -221q-17 -49 -32 -97.5t-29 -100.5q32 53 135 184q98 123 222 262q119 133 168 172l91 -54q41 -27 41 -56
q0 -20 -43 -131l-90 -234q-43 -117 -56 -173q72 103 203 251q40 45 87 97q25 28 83 89.5t85 88.5q122 125 139 128q25 3 63.5 -38.5t38.5 -69.5q0 -11 -217 -255l-332 -377q-115 -133 -171 -220q-52 21 -94 58t-54 55t-12 34q0 53 39.5 188t90.5 268q-45 -37 -148 -158
q-91 -108 -199 -243q-93 -118 -139 -181z" />
    <glyph glyph-name="X" unicode="X" horiz-adv-x="846" 
d="M-19 -96q-28 31 -42.5 82.5t-14.5 88.5q0 33 122 156t244 207l-1 101l-1 111q0 104 4 149q0 50 14 57q11 7 27 7q37 0 81 -15.5t52.5 -28.5t8.5 -65l-1 -66l-1 -69l3 -73q17 13 66 46l96 64l192 121l132 81q36 -46 52 -72t16 -55l-3 -19q-3 -14 -111 -86l-232 -153
q-124 -82 -178 -137q0 -108 36 -212.5t72 -116.5q17 -4 29 -6.5t22 -3.5q27 0 44 16l49 53q-19 -69 -78.5 -112.5t-128.5 -43.5q-55 0 -109 36.5t-79 121.5l-40 139q-54 -29 -182 -138q-123 -106 -160 -165z" />
    <glyph glyph-name="Y" unicode="Y" horiz-adv-x="673" 
d="M101 -99q-35 24 -64 68.5t-29 69.5q0 27 51.5 108.5t113.5 137.5q-51 27 -75 80.5t-24 126.5q0 103 49 226.5t70 129.5l26 6q34 0 81.5 -31t61.5 -61q-30 -67 -68 -176q-16 -50 -25 -105.5t-9 -114.5q56 64 121 133q59 63 115.5 118.5t105.5 100.5q41 38 90 81l84 71
l59 -41q55 -37 55 -73q0 -15 -112 -121q-60 -57 -121 -118q-67 -67 -145 -148.5t-178 -195.5q-105 -119 -233 -272z" />
    <glyph glyph-name="Z" unicode="Z" horiz-adv-x="779" 
d="M628 -28l-69 24q-30 0 -128 -21l-197 -43q-107 -22 -168 -22q-29 0 -47 3t-38 13q-32 15 -55.5 61t-23.5 97q0 41 105 125q98 77 322 233q220 152 305 218q-39 -5 -73 -10q-15 -2 -53 -10l-136 -24q-21 -3 -46.5 -6.5t-42.5 -3.5l-27 1q-10 1 -22 16q-10 15 -29.5 73.5
t-14.5 71.5q11 21 212 56.5t313 35.5q34 0 42 -2q12 0 30 -12q18 -9 54.5 -74.5t36.5 -103.5q0 -11 -8.5 -28.5t-111.5 -97.5q-53 -41 -124 -93q-66 -48 -173 -125l-289 -210q183 40 281 40q51 0 73 -11t58 -69t44 -102z" />
    <glyph glyph-name="a" unicode="a" 
d="M-70 89q9 63 100 200t198 261t141 140q7 2 81 -49t109 -62q-28 -74 -52 -151l-38 -144q-15 -68 -29.5 -173t-23.5 -151q-28 3 -49 20q-21 15 -37 46l-18 37l-1 18l2 24l2 27l-1 13l-132 -15q-52 -5 -63 -6.5t-22 -4.5q-22 -15 -52 -67l-55 -97q-26 27 -43.5 58.5
t-17.5 61.5zM328 269l69 255l-56 -68q-31 -36 -39 -46q-12 -15 -45 -58q-51 -64 -75 -101l86 11z" />
    <glyph glyph-name="b" unicode="b" horiz-adv-x="612" 
d="M-64 57q5 39 52.5 140.5t102.5 194.5q29 48 57.5 92.5t61.5 90.5q63 90 87 96l57 -44q18 19 64 34t108 15q18 0 33.5 -3.5t45.5 -30t30 -59.5l-9 -57q-9 -49 -40 -87t-131 -114q48 -15 65.5 -38.5t17.5 -54.5q0 -15 -2 -22q0 -13 -3 -32.5t-5 -33.5q-6 -55 -124 -123.5
t-221 -68.5l-15 1l-28 4q-17 0 -37 20l-51 52l-35 -71q-23 17 -40 30.5t-28 23.5q-14 14 -14 34q0 7 1 11zM226 344q36 -9 171.5 80t135.5 128q0 6 -5 10l-12 4q-23 0 -70 -21l-114 -58zM187 278l-87 -151q6 -11 36 -19q15 -3 31 -5t34 -2q19 0 38.5 3t40.5 10
q42 13 91.5 47.5t49.5 57.5q0 5 -8.5 13.5t-31.5 8.5q-12 0 -29 -3t-46 -11l-53 -14q-7 0 -15 8l-26 23q-14 15 -25 34z" />
    <glyph glyph-name="c" unicode="c" horiz-adv-x="486" 
d="M310 388q33 31 58 76q11 21 18 40.5t7 32.5q0 11 -6 16q-3 4 -14 5q-57 0 -168.5 -173.5t-111.5 -271.5q0 -24 8 -37l110 63q104 83 125 143q33 -7 63 -48q30 -38 22 -55q-46 -84 -131 -150.5t-157 -66.5q-42 0 -88.5 30.5t-64.5 70t-18 75.5q0 62 24.5 142.5t78.5 171.5
t129 161t127 76l57 5l12 1q54 0 85 -26.5t40 -58.5l8 -41q0 -51 -33 -140t-56 -102q-16 5 -33 10.5t-36 12.5q-36 14 -55 38z" />
    <glyph glyph-name="d" unicode="d" horiz-adv-x="564" 
d="M28 13q-3 -11 -13 -20l-14 -12q-15 0 -41 39t-26 69q0 25 46.5 115t106.5 191l103 172v65q57 24 111.5 40t96.5 16q26 0 71.5 -18.5t81.5 -74.5t36 -123v-26l-11 -56q-8 -45 -69.5 -146.5t-161.5 -183.5t-222 -100q-27 -3 -53 17zM84 88q133 46 217.5 130t121.5 168.5
t37 127.5q0 18 -19.5 28t-43.5 10q-33 0 -46 -9.5t-79 -120.5l-109 -192z" />
    <glyph glyph-name="e" unicode="e" horiz-adv-x="504" 
d="M333 671q25 0 77 7l60 7q12 0 41 -9.5t51 -47.5t22 -89l-35 7l-17 1l-20 1q-48 0 -91 -11l-85 -21l-92 -139l69 18q32 8 51 8t56 -20t37 -98q-4 3 -18 5l-15 -1q-45 0 -128 -22t-113 -38q-30 -14 -52 -53l-39 -81l107 39q31 11 56 11l20 -3q12 -1 40 -38t28 -76l-14 8
l-20 2q-17 -6 -30 -10q-32 -11 -86 -31q-109 -41 -138 -36q-64 13 -88 59t-24 77q0 14 12 55t79 159q75 129 131 216q61 96 111 169q10 3 28 -11q18 -12 29 -14z" />
    <glyph glyph-name="f" unicode="f" horiz-adv-x="522" 
d="M294 676l47 -21l35 -12q7 -1 70 9l72 12q30 0 51 -33.5t39 -84.5l-25 6q-19 3 -104.5 -15.5t-130.5 -40.5l-103 -158l69 13q40 8 59 8l17 -2q33 -10 49.5 -36.5t26.5 -76.5q-6 3 -16 3q-11 0 -17 2q-30 3 -140 -27t-134 -58.5t-58 -88.5l-71 -134q-33 24 -57 57t-33 67
q-3 13 62.5 141t147 264t144.5 206z" />
    <glyph glyph-name="g" unicode="g" horiz-adv-x="529" 
d="M172 -29l-14 -1h-11q-70 0 -116.5 43.5t-52.5 86.5l-6 57q0 82 47 196.5t140 211t163 108.5l76 11h14q63 0 113.5 -30t50.5 -78q0 -37 -24.5 -104t-41.5 -74l-25 -5q-24 0 -51 12l-52 28l41 60q20 31 22 45q-3 7 -5.5 9.5t-14.5 7.5l-18 3q-52 0 -122 -79.5t-123.5 -186
t-53.5 -168.5q0 -25 6 -33t14 -10q22 0 78.5 41.5t90.5 88.5q-9 0 -35 -9q-12 -3 -23 -6t-25 -8l-6 41l-3 41q0 23 8 34t78.5 24.5t109.5 13.5q12 0 19 -2t26 -47q7 -15 12 -32.5t5 -30.5q-7 -41 -105 -144t-186 -115z" />
    <glyph glyph-name="h" unicode="h" horiz-adv-x="616" 
d="M-63 61q5 42 41 127q19 46 36.5 83.5t37.5 75.5l67 122l70 116l58 95q38 -13 73.5 -31.5t35.5 -41.5l-3 -10l-157 -282l217 46l114 207q64 112 85 112q35 0 64 -27l42 -42l-86 -146l-94 -172q-47 -89 -84 -169l-78 -183q-62 33 -72 77l-10 55q0 27 18 72l22 59l-212 -46
l-97 -194q-60 34 -74 50t-14 39v8z" />
    <glyph glyph-name="i" unicode="i" horiz-adv-x="330" 
d="M34 -47q-64 55 -75.5 69.5t-9.5 28.5q18 95 93 244q37 73 74.5 139.5t77.5 128.5q77 121 98 129q21 9 73 -31.5t41 -58.5l-107 -166q-35 -56 -72 -118t-75 -130q-74 -133 -118 -235z" />
    <glyph glyph-name="j" unicode="j" horiz-adv-x="531" 
d="M134 305q-20 -40 -41 -98q-17 -53 -17 -85q0 -18 7 -25q3 -3 9 -3q13 0 41 17q40 24 75.5 75.5t102.5 173.5l123 228q56 104 70 110q15 6 48 -16q29 -21 62 -49q0 -25 -69.5 -164.5t-159.5 -275t-141 -169.5q-47 -31 -77 -40t-52 -9q-44 0 -82 20.5t-55 46.5t-23 49.5
t-6 50.5q0 51 15.5 96.5t36.5 62.5t75 17l31 -3q16 -3 27 -10z" />
    <glyph glyph-name="k" unicode="k" horiz-adv-x="600" 
d="M-3 -43l-52 44q-23 23 -29 57q-3 25 74 176.5t162 294.5q89 149 108 153q19 3 57.5 -20.5t44.5 -44.5q5 -18 -40 -91l-89 -142l168 121q87 64 169 119.5t95 57.5q24 0 39.5 -24.5t15.5 -59.5q0 -18 -2 -25t-81 -66.5t-137 -100.5l-212 -149q60 -56 107 -105.5t51 -69.5
l4 -26q0 -30 -13 -50l-33 -43l-13 17l-42 38l-86 72q-51 42 -111 81l-25 -17l-20 -13q-6 -5 -18 -25z" />
    <glyph glyph-name="l" unicode="l" horiz-adv-x="439" 
d="M369 30l-16 5l-20 5l-61 -18l-122 -40q-69 -23 -93 -23l-24 6q-17 5 -42.5 53t-32.5 95q-6 48 59 174q62 119 150 263q51 83 64 102q9 15 23 34q25 5 65.5 -22.5t49.5 -55.5q3 -14 -52 -109l-124 -209q-67 -114 -94 -179q54 17 98.5 27.5t69.5 10.5q13 0 31 -6.5
t41.5 -39t29.5 -73.5z" />
    <glyph glyph-name="m" unicode="m" horiz-adv-x="854" 
d="M-3 -48l-69 78q-2 2 -4 15q0 37 38 117q19 43 38.5 82.5t44.5 84.5q47 87 131 205.5t108 142.5q22 -7 43.5 -15t46.5 -20q47 -21 72 -57l-31 -97l-42 -144q-8 -30 -16.5 -66.5t-12.5 -57.5l425 462q59 -15 103.5 -51.5t53.5 -68.5q3 -12 -21 -57t-86 -147l-81 -135
l-72 -137l-68 -134q-37 18 -66 45q-23 21 -23 46q1 7 1 10q9 57 68 162l108 194l-388 -457l-52 36q-18 13 -25 38t-7 64q0 71 10 152q5 41 13 82.5t19 79.5z" />
    <glyph glyph-name="n" unicode="n" horiz-adv-x="695" 
d="M260 668q20 8 91 -31.5t67 -55.5q-23 -66 -39.5 -121t-27 -99.5t-15.5 -76.5t-5 -58q0 -25 2 -35l9 -32q33 65 82.5 149.5t111.5 180.5q126 195 141 204t23 11q22 0 50.5 -24t31.5 -42q0 -14 -85 -153l-182 -295q-92 -148 -128 -220q-54 8 -93 31.5t-57.5 61.5t-27.5 74
q-3 19 -5 37t-2 39v37q3 17 5 35.5t2.5 22.5t6.5 29l-208 -374q-32 17 -54.5 44.5t-30.5 60.5q-3 16 72 164q79 155 158 286q83 140 107 150z" />
    <glyph glyph-name="o" unicode="o" horiz-adv-x="610" 
d="M4 68q-21 41 -21 101q0 167 137.5 346.5t286.5 179.5q49 0 98 -25t76.5 -73.5t27.5 -110.5q0 -105 -69 -228t-164.5 -209.5t-165.5 -86.5q-25 0 -42 5.5t-34 13.5q-22 12 -35 19l-52 25q-30 16 -43 43zM143 100q4 -3 15 -5q38 0 113 63t115 130t63 116.5t23 91.5
q0 24 -8 39q-6 15 -22 24.5t-32 9.5q-43 0 -98.5 -54t-92.5 -120q-16 -27 -32 -63.5t-30 -74.5q-26 -75 -26 -117q0 -26 12 -40z" />
    <glyph glyph-name="p" unicode="p" horiz-adv-x="572" 
d="M27 -35q-46 31 -73 53.5t-31 43.5q-3 19 72 170q36 71 78.5 150.5t83.5 151.5q87 151 96 157t16 6q11 0 34 -17l31 -22q12 5 34.5 13t38.5 13q37 10 66 10q38 0 75 -17t68 -56t31 -88q0 -114 -123.5 -241t-235.5 -127l-33 3q-22 6 -32 15.5t-46 63.5q-20 -22 -76 -127
q-26 -48 -44.5 -87.5t-29.5 -67.5zM205 307l3 -11l6 -8q5 -3 16 -3q57 0 172 94t115 148q0 12 -7 19.5t-21 11.5l-27 3q-32 0 -66.5 -11t-49.5 -22q-7 -5 -23.5 -26.5t-45.5 -65.5q-54 -82 -72 -129z" />
    <glyph glyph-name="q" unicode="q" horiz-adv-x="606" 
d="M-10 63q-15 44 -15 96q0 177 132 354.5t286 177.5q59 0 112 -30t75.5 -76t22.5 -103q0 -99 -55.5 -212t-138.5 -199q-3 -3 10 -14q11 -7 27 -7q7 0 17 2t21 12l26 22q0 -24 -4 -43t-16 -45q-18 -45 -52 -52l-40 -6h-11q-33 0 -62 16l-40 27l-69 -28q-15 -6 -25 -6
q-29 0 -49 9q-7 3 -22 11.5t-38 22.5l-51 24q-29 16 -41 47zM129 86q6 -4 22 12q15 19 25 24l19 8l19 3l19 -3l12 -1q15 4 63 54.5t76 94t53.5 110.5t25.5 110q0 39 -17 46l-32 9l-27 2q-108 0 -193.5 -146t-85.5 -261q0 -47 21 -62z" />
    <glyph glyph-name="r" unicode="r" horiz-adv-x="541" 
d="M15 -48q-43 36 -64 59.5t-21 55.5q0 33 67 176q63 135 147 284q80 143 91 147l17 4q11 0 21 -5q12 -3 41 -22l79 20q32 8 54 8q36 0 62.5 -19t44.5 -51q5 -11 11 -25t9 -24l4 -32q0 -82 -83 -167.5t-192 -131.5q44 -37 82.5 -85t41.5 -72q0 -35 -12.5 -62t-43.5 -64
q-37 57 -116 140.5t-124 115.5q-26 -38 -67 -124q-36 -81 -49 -126zM184 314q74 22 166 81t92 112q0 12 -6.5 24.5t-32.5 12.5q-14 0 -25 -2t-31 -10.5t-44.5 -33t-60.5 -78.5q-32 -51 -58 -106z" />
    <glyph glyph-name="s" unicode="s" horiz-adv-x="528" 
d="M333 392q36 42 57 72t21 52q0 18 -11.5 28t-22.5 10q-28 0 -67 -28t-59.5 -61.5t-20.5 -69.5q0 -23 10.5 -46.5t24.5 -37.5t82 -59t68 -115v-12q0 -7 -2 -17q0 -4 -3 -16t-10 -36q-12 -42 -69.5 -75t-137.5 -33q-48 0 -115 16.5t-111.5 71t-44.5 86.5q0 18 35 49l55 51
q12 -64 72 -104.5t117 -40.5q48 0 56.5 19t10.5 33q0 26 -76 72t-89 76q-6 15 -9.5 26t-7.5 29l-5 48q0 117 96.5 214.5t203.5 97.5q51 0 90 -26q41 -24 60 -60.5t19 -75.5q0 -66 -39.5 -130t-54.5 -67l-17 -2h-6q-14 0 -25.5 4t-25.5 16z" />
    <glyph glyph-name="t" unicode="t" horiz-adv-x="480" 
d="M99 -54l-69 56q-32 26 -32 46q11 60 51 144.5t88 165.5l108 175q-12 0 -32.5 -2.5t-46.5 -7.5q-59 -12 -72 -12q-9 0 -15.5 4t-21.5 40q-12 33 -12 54q0 9 17 26q17 15 124.5 34t219.5 19q56 0 97 -6q39 -4 53.5 -14.5t36 -46.5t25.5 -60q-25 0 -39 -1q-71 -5 -81 -5
q-32 0 -52.5 -3.5t-28.5 -9t-80 -132.5q-39 -69 -71.5 -128.5t-68 -128.5t-58.5 -118t-40 -89z" />
    <glyph glyph-name="u" unicode="u" horiz-adv-x="642" 
d="M-20 58q-3 9 -3 24q0 60 55.5 197.5t120 257.5t79.5 129.5t23 9.5q25 0 62 -28t37 -45q0 -25 -59 -133l-118 -221q-58 -113 -58 -149q0 -8 3 -14l111 83q94 100 200.5 251.5t148.5 259.5q52 -24 75.5 -39t38.5 -50q12 -27 -87.5 -194t-228 -312t-211.5 -145q-30 0 -59 21
l-36 28q-7 6 -44.5 25t-49.5 44z" />
    <glyph glyph-name="v" unicode="v" horiz-adv-x="599" 
d="M113 -52q-40 15 -77 51t-42 55l-3 30q0 36 9 86.5t29 121.5q38 139 85.5 260t56.5 124l17 3q29 0 67 -17.5t48 -43.5q2 -6 -33 -93l-68 -175q-30 -82 -47 -167q84 110 193.5 227t194.5 197q82 76 106 89q17 7 59 -36t36 -68q-2 -9 -167 -171l-266 -263
q-100 -100 -198 -210z" />
    <glyph glyph-name="w" unicode="w" horiz-adv-x="929" 
d="M110 -40q-40 9 -72.5 43.5t-37.5 55.5q-4 20 39 167q22 74 46.5 148.5t51.5 146.5q54 148 70 157q14 6 61 -13.5t46 -32.5l-87 -231q-42 -115 -63 -199q25 43 107 146q79 97 171 202q84 94 126 128l70 -41q31 -22 31 -46q2 -17 -32 -100l-69 -178q-18 -46 -28.5 -78
t-15.5 -56q53 76 157 194q97 110 196 212q92 95 107 98q18 3 48 -29.5t30 -53.5q0 -9 -166 -196l-256 -290q-91 -105 -132 -170q-38 15 -72.5 46t-41.5 42t-9 26q0 41 30.5 143.5t69.5 206.5q-34 -28 -108 -115l-158 -193z" />
    <glyph glyph-name="x" unicode="x" horiz-adv-x="690" 
d="M-33 -56q-21 24 -33 64q-5 18 -8 35.5t-3 32.5q0 25 96 122t186 157l-1 82v85q0 26 0.5 54.5t1.5 59.5q0 16 2.5 26.5t6.5 14.5l11 5l12 1q28 0 63 -12.5t41 -22t6 -47.5l-1 -53l-1 -59v-26q0 -15 2 -24q28 21 65.5 46.5t45.5 30.5l145 90l119 73l38 -55q13 -23 13 -42
l-2 -18q-1 -9 -85 -64l-178 -117q-94 -62 -138 -106q0 -85 27.5 -164.5t56.5 -89.5l38 -8q21 0 42 21l31 33q-15 -52 -61 -86t-99 -34q-43 0 -84 29q-41 27 -63 97l-28 103q-44 -24 -140 -106t-124 -128z" />
    <glyph glyph-name="y" unicode="y" horiz-adv-x="570" 
d="M87 -56q-27 18 -49 53q-11 17 -16.5 30t-5.5 23q0 23 39.5 85t87.5 105q-39 21 -57.5 61.5t-18.5 97.5q0 81 38 175.5t52 98.5l22 4q27 0 63 -24q36 -22 46 -46q-22 -52 -52 -136q-26 -80 -26 -169q96 109 185 196.5t148 138.5l64 53l45 -31q21 -14 32 -27.5t11 -28.5
q0 -11 -84 -90.5t-206 -207.5q-129 -136 -318 -361z" />
    <glyph glyph-name="z" unicode="z" horiz-adv-x="601" 
d="M487 -3l-53 19q-24 0 -108 -18l-155 -33q-72 -15 -117 -15h-16q-9 0 -19 2q-9 0 -33 12q-22 9 -40 44.5t-18 75.5q0 33 86 101t249 179q167 115 229 163q-11 -1 -48 -7t-91 -15.5t-86.5 -14.5t-44.5 -5q-26 0 -37 12q-9 12 -23.5 57.5t-11.5 55.5q8 15 163 43t242 28
q36 0 51.5 -9.5t44.5 -59.5t29 -79q0 -9 -6.5 -22.5t-74 -65.5t-226.5 -166q-166 -118 -237 -172q74 17 125 24q27 3 49.5 5t42.5 2q41 0 56.5 -9t43.5 -53t34 -79z" />
    <glyph glyph-name="nonbreakingspace" unicode="&#xa0;" horiz-adv-x="474" 
 />
    <glyph glyph-name="cent" unicode="&#xa2;" horiz-adv-x="602" 
d="M323 410q23 21 40.5 53t17.5 52q0 9 -4 12t-10 3q-39 0 -117.5 -122.5t-78.5 -189.5q0 -14 6 -26l78 44q72 59 87 100q22 -4 43.5 -32.5t15.5 -39.5q-31 -58 -91 -106q-29 -23 -56.5 -34.5t-53.5 -11.5q-29 0 -61 21t-46 48q-13 29 -13 54q0 20 4 46t13.5 56t22 57
t33.5 62q36 61 90 113q50 47 87 52l41 4h8q40 0 60.5 -18.5t26.5 -39t6 -30.5q0 -20 -5 -43.5t-17 -56.5q-21 -60 -40 -69l-49 16q-24 9 -38 26zM565 731q-2 -12 -40 -55l-50 -62q-19 12 -29 32.5t-10 40.5l1 21q2 11 27 44.5t37 35.5q19 0 41.5 -18.5t22.5 -38.5zM134 73
q-2 -12 -40 -55l-50 -62q-20 14 -29.5 34t-9.5 40l2 20q2 11 27 44.5t36 35.5q19 0 41.5 -17.5t22.5 -39.5z" />
    <glyph glyph-name="copyright" unicode="&#xa9;" horiz-adv-x="854" 
d="M88 78q-11 20 -20.5 45.5t-17.5 53.5q-12 54 -12 111q0 203 133 375t313 172q51 0 92 -11t107 -48t104 -114q20 -39 30 -79.5t10 -89.5q0 -191 -141 -366.5t-312 -175.5q-11 0 -25 1t-33.5 4t-29.5 5t-26 8.5t-33.5 15t-28.5 14.5l-60 29q-32 19 -50 50zM223 75
q20 -23 59 -23q71 0 170 68.5t151 150.5q47 76 79 149t32 137q0 45 -18 80.5t-61 64t-90 28.5q-80 0 -160 -64t-121.5 -137.5t-66.5 -155.5q-11 -37 -17 -73t-6 -72q0 -49 11.5 -86t37.5 -67zM470 439q19 18 37.5 50.5t18.5 50.5q0 7 -4 10.5t-10 3.5q-38 0 -112.5 -118
t-74.5 -182q0 -17 5 -25l74 42q69 57 84 96q22 -5 42.5 -32t15.5 -36q-30 -58 -87.5 -102.5t-107.5 -44.5q-30 0 -60 20.5t-42.5 47t-12.5 50.5q0 42 16.5 97.5t52 114.5t87.5 109q25 23 47.5 37t38.5 14l49 4q69 0 78 -37t9 -47q0 -35 -21.5 -94.5t-38.5 -68.5l-46 13
q-23 8 -38 27z" />
    <glyph glyph-name="minus" unicode="&#xad;" horiz-adv-x="480" 
d="M96 322l-22 52q-17 51 -17 78q0 14 4.5 21.5t48.5 13.5q48 5 98 5q72 0 126 -6.5t84 -29.5q14 -10 27 -22.5t26 -28.5q22 -26 28 -68q-23 3 -62 3q-28 0 -89.5 -3.5t-90.5 -3.5z" />
    <glyph glyph-name="registered" unicode="&#xae;" horiz-adv-x="847" 
d="M80 78q-23 43 -36 98t-13 111q0 204 133 376.5t313 172.5q48 0 90 -12q42 -10 108.5 -47t104.5 -114q20 -39 30 -79.5t10 -89.5q0 -192 -142 -367.5t-314 -175.5q-10 0 -23.5 1t-28.5 4q-30 3 -59 14t-62 28l-60 31q-35 20 -51 49zM215 75q8 -11 24.5 -16.5t34.5 -5.5
q72 0 170.5 68t149.5 151.5t82 152.5t31 133q0 43 -18.5 79.5t-61 64.5t-90.5 28q-79 0 -160 -64t-121.5 -138t-64.5 -152.5t-24 -147.5q0 -49 11.5 -85.5t36.5 -67.5zM277 176q-36 28 -45 42t-9 30q0 24 43 114q47 99 93.5 182t55 85.5t14.5 2.5q3 0 9 -2l27 -14l38 9
q6 2 23 4.5t23 3.5q22 0 39.5 -11.5t30.5 -37.5q5 -11 9 -23.5t4 -23.5q0 -53 -52 -106t-119 -81q43 -55 43 -81q0 -24 -9 -42q-4 -8 -10 -18t-16 -21q-21 31 -28 40q-12 16 -34 44q-34 44 -57 61q-16 -25 -41.5 -80.5t-31.5 -76.5zM383 403q25 8 50 20t56 32q57 36 57 70
q0 6 -3.5 14.5t-20.5 8.5q-15 0 -32.5 -6.5t-31.5 -21.5t-38 -50q-19 -28 -37 -67z" />
    <glyph glyph-name="Agrave" unicode="&#xc0;" 
 />
    <glyph glyph-name="Aacute" unicode="&#xc1;" 
 />
    <glyph glyph-name="Acircumflex" unicode="&#xc2;" 
 />
    <glyph glyph-name="Atilde" unicode="&#xc3;" 
 />
    <glyph glyph-name="Adieresis" unicode="&#xc4;" 
 />
    <glyph glyph-name="Aring" unicode="&#xc5;" 
 />
    <glyph glyph-name="Ccedilla" unicode="&#xc7;" horiz-adv-x="672" 
 />
    <glyph glyph-name="Egrave" unicode="&#xc8;" horiz-adv-x="504" 
 />
    <glyph glyph-name="Eacute" unicode="&#xc9;" horiz-adv-x="504" 
 />
    <glyph glyph-name="Ecircumflex" unicode="&#xca;" horiz-adv-x="504" 
 />
    <glyph glyph-name="Edieresis" unicode="&#xcb;" horiz-adv-x="504" 
 />
    <glyph glyph-name="Igrave" unicode="&#xcc;" horiz-adv-x="330" 
 />
    <glyph glyph-name="Iacute" unicode="&#xcd;" horiz-adv-x="330" 
 />
    <glyph glyph-name="Icircumflex" unicode="&#xce;" horiz-adv-x="330" 
 />
    <glyph glyph-name="Idieresis" unicode="&#xcf;" horiz-adv-x="330" 
 />
    <glyph glyph-name="Ntilde" unicode="&#xd1;" horiz-adv-x="695" 
 />
    <glyph glyph-name="Ograve" unicode="&#xd2;" horiz-adv-x="610" 
 />
    <glyph glyph-name="Oacute" unicode="&#xd3;" horiz-adv-x="610" 
 />
    <glyph glyph-name="Ocircumflex" unicode="&#xd4;" horiz-adv-x="610" 
 />
    <glyph glyph-name="Otilde" unicode="&#xd5;" horiz-adv-x="610" 
 />
    <glyph glyph-name="Odieresis" unicode="&#xd6;" horiz-adv-x="610" 
 />
    <glyph glyph-name="multiply" unicode="&#xd7;" horiz-adv-x="1183" 
 />
    <glyph glyph-name="Ugrave" unicode="&#xd9;" horiz-adv-x="642" 
 />
    <glyph glyph-name="Uacute" unicode="&#xda;" horiz-adv-x="642" 
 />
    <glyph glyph-name="Ucircumflex" unicode="&#xdb;" horiz-adv-x="642" 
 />
    <glyph glyph-name="Udieresis" unicode="&#xdc;" horiz-adv-x="642" 
 />
    <glyph glyph-name="agrave" unicode="&#xe0;" 
 />
    <glyph glyph-name="aacute" unicode="&#xe1;" 
 />
    <glyph glyph-name="acircumflex" unicode="&#xe2;" 
 />
    <glyph glyph-name="atilde" unicode="&#xe3;" 
 />
    <glyph glyph-name="adieresis" unicode="&#xe4;" 
 />
    <glyph glyph-name="aring" unicode="&#xe5;" 
 />
    <glyph glyph-name="ccedilla" unicode="&#xe7;" horiz-adv-x="672" 
 />
    <glyph glyph-name="egrave" unicode="&#xe8;" horiz-adv-x="504" 
 />
    <glyph glyph-name="eacute" unicode="&#xe9;" horiz-adv-x="504" 
 />
    <glyph glyph-name="ecircumflex" unicode="&#xea;" horiz-adv-x="504" 
 />
    <glyph glyph-name="edieresis" unicode="&#xeb;" horiz-adv-x="504" 
 />
    <glyph glyph-name="igrave" unicode="&#xec;" horiz-adv-x="330" 
 />
    <glyph glyph-name="iacute" unicode="&#xed;" horiz-adv-x="330" 
 />
    <glyph glyph-name="icircumflex" unicode="&#xee;" horiz-adv-x="330" 
 />
    <glyph glyph-name="idieresis" unicode="&#xef;" horiz-adv-x="330" 
 />
    <glyph glyph-name="ntilde" unicode="&#xf1;" horiz-adv-x="695" 
 />
    <glyph glyph-name="ograve" unicode="&#xf2;" horiz-adv-x="610" 
 />
    <glyph glyph-name="oacute" unicode="&#xf3;" horiz-adv-x="610" 
 />
    <glyph glyph-name="ocircumflex" unicode="&#xf4;" horiz-adv-x="610" 
 />
    <glyph glyph-name="otilde" unicode="&#xf5;" horiz-adv-x="610" 
 />
    <glyph glyph-name="odieresis" unicode="&#xf6;" horiz-adv-x="610" 
 />
    <glyph glyph-name="ugrave" unicode="&#xf9;" horiz-adv-x="642" 
 />
    <glyph glyph-name="uacute" unicode="&#xfa;" horiz-adv-x="642" 
 />
    <glyph glyph-name="ucircumflex" unicode="&#xfb;" horiz-adv-x="642" 
 />
    <glyph glyph-name="udieresis" unicode="&#xfc;" horiz-adv-x="642" 
 />
    <glyph glyph-name="yacute" unicode="&#xfd;" horiz-adv-x="1183" 
 />
    <glyph glyph-name="ydieresis" unicode="&#xff;" horiz-adv-x="570" 
 />
    <glyph glyph-name="Lslash" unicode="&#x141;" horiz-adv-x="1183" 
 />
    <glyph glyph-name="Ydieresis" unicode="&#x178;" horiz-adv-x="570" 
d="M418 826q0 -15 -36 -66t-45 -73q-25 14 -36.5 28.5t-19.5 42.5q-6 21 21 66.5t44 45.5q18 0 45 -15t27 -29zM579 819q0 -11 -39 -69.5t-43 -69.5q-24 14 -36 29.5t-19 41.5q-6 21 21 66.5t44 45.5q15 0 43 -15t29 -29zM707 604q0 -11 -85 -95q-93 -90 -210 -215
q-124 -131 -322 -367q-34 23 -62 63q-24 38 -24 61q0 21 36.5 81.5t82.5 105.5q-34 24 -52 65q-16 43 -16 96q0 83 41.5 181.5t58.5 104.5l23 5q29 0 70 -27q41 -25 51 -51q-24 -49 -50.5 -123t-26.5 -156q93 105 177 186q77 75 145 134l64 53l52 -40q47 -33 47 -62z" />
    <glyph glyph-name="endash" unicode="&#x2013;" horiz-adv-x="492" 
d="M60 328l-22 52q-17 51 -17 78q0 14 4.5 21.5t48.5 13.5q48 5 98 5q72 0 126 -6.5t84 -29.5q14 -10 27 -22.5t26 -28.5q22 -26 28 -68q-23 3 -62 3q-28 0 -89.5 -3.5t-90.5 -3.5z" />
    <glyph glyph-name="emdash" unicode="&#x2014;" horiz-adv-x="1000" 
d="M78 322l-22 52q-17 51 -17 78q0 14 6.5 24.5t111.5 10.5q45 0 131.5 2.5t111.5 2.5q71 0 178 -3.5t128 -3.5q66 0 107.5 -9.5t65.5 -27.5q36 -28 59 -50t29 -61q-16 4 -35.5 6.5t-47.5 2.5l-123 3q-44 0 -141.5 -3.5t-144.5 -3.5l-247 -12z" />
    <glyph glyph-name="quoteleft" unicode="&#x2018;" horiz-adv-x="162" 
d="M362 756q-25 0 -34 -2q-12 -1 -30 -12q-18 -9 -87 -84t-75 -75q-15 0 -54 30.5t-44 51.5q-3 26 50.5 94t113.5 68l18 1q33 0 59 -10.5t83 -61.5z" />
    <glyph glyph-name="quoteright" unicode="&#x2019;" horiz-adv-x="228" 
d="M72 666h15q7 0 19.5 2t29 11t86.5 84t80 76q14 0 52 -30.5t42 -51.5q3 -25 -51 -93.5t-113 -68.5l-18 -1q-33 0 -59 10.5t-83 61.5z" />
    <glyph glyph-name="quotedblleft" unicode="&#x201c;" horiz-adv-x="492" 
d="M704 780q-25 0 -34 -2q-12 -1 -30 -12q-18 -9 -87 -84t-75 -75q-15 0 -54 30.5t-44 51.5q-3 26 50.5 94t113.5 68l18 1q33 0 59 -10.5t83 -61.5zM412 781q-16 0 -26 2q-6 0 -23.5 -7t-80 -67.5t-76.5 -65.5q-17 -5 -58.5 28.5t-45.5 49.5q-5 18 53.5 79t113.5 61
q40 0 76 -24z" />
    <glyph glyph-name="quotedblright" unicode="&#x201d;" horiz-adv-x="648" 
d="M180 714h15q7 0 19.5 2t29 11t86.5 84t80 76q14 0 52 -30.5t42 -51.5q3 -25 -51 -93.5t-113 -68.5l-18 -1q-33 0 -59 10.5t-83 61.5zM472 713l26 -2l23 6q15 5 80 69q62 60 77 65q17 5 58.5 -28.5t45.5 -49.5q4 -17 -53.5 -78.5t-113.5 -61.5q-40 0 -76 24z" />
    <glyph glyph-name="bullet" unicode="&#x2022;" horiz-adv-x="324" 
d="M163 265q-39 23 -72 57q-29 32 -36 53t-7 30q0 42 38.5 104.5t65.5 65.5q28 0 86 -31t58 -52t-63.5 -117t-69.5 -110z" />
    <glyph glyph-name="ellipsis" unicode="&#x2026;" horiz-adv-x="690" 
d="M-8 -105q-29 16 -45.5 37.5t-22.5 40.5l-5 24q0 32 31.5 82.5t51.5 53.5q26 0 60 -20q36 -18 36 -37q0 -20 -46 -85t-60 -96zM228 -105q-28 16 -47 39q-15 21 -21 39l-5 24q0 32 31.5 82.5t51.5 53.5q26 0 60 -20q36 -18 36 -37q0 -20 -46 -85t-60 -96zM464 -105
q-28 16 -47 39q-15 21 -21 39l-5 24q0 32 31.5 82.5t51.5 53.5q26 0 60 -20q36 -18 36 -37q0 -20 -46 -85t-60 -96z" />
    <glyph glyph-name="trademark" unicode="&#x2122;" horiz-adv-x="1204" 
d="M161 301l-59 47q-21 18 -18 32q7 42 39 109t69 130l81 131q-15 2 -59 -7t-56 -9q-8 0 -14 3l-14 29q-10 28 -10 42q0 6 13.5 20t96.5 27.5t166 13.5q92 0 109.5 -12t33.5 -39t19 -46h-39.5t-56.5 -4q-21 0 -36.5 -2.5t-21 -6.5t-58.5 -96q-25 -45 -51.5 -94t-55.5 -103
q-54 -106 -78 -165zM481 306l-52 59q-3 3 -3 12q0 25 30 93q15 33 30 64.5t32 61.5q36 66 98 153q66 93 84 111q22 -6 35 -10.5t34 -15.5q36 -15 56 -44l-48 -154q-23 -78 -31 -125l325 354q46 -12 79 -41q35 -27 42 -51q3 -16 -49 -104l-83 -137q-30 -50 -61 -110l-58 -116
q-27 11 -49 32.5t-19 44.5q4 23 16 51.5t37 72.5l82 149l-297 -350l-39 27q-11 8 -18 26t-7 53q0 40 1.5 57.5t6.5 57.5q9 65 24 124z" />
    </font>
</defs>
</svg>
